<?xml version="1.0" encoding="iso-8859-1"?>
<!-- Generator: Adobe Illustrator 30.2.1, SVG Export Plug-In . SVG Version: 9.03 Build 0)  -->
<!DOCTYPE svg PUBLIC "-//W3C//DTD SVG 1.1//EN" "http://www.w3.org/Graphics/SVG/1.1/DTD/svg11.dtd" [
	<!ENTITY ns_extend "http://ns.adobe.com/Extensibility/1.0/">
	<!ENTITY ns_ai "http://ns.adobe.com/AdobeIllustrator/10.0/">
	<!ENTITY ns_graphs "http://ns.adobe.com/Graphs/1.0/">
	<!ENTITY ns_vars "http://ns.adobe.com/Variables/1.0/">
	<!ENTITY ns_imrep "http://ns.adobe.com/ImageReplacement/1.0/">
	<!ENTITY ns_sfw "http://ns.adobe.com/SaveForWeb/1.0/">
	<!ENTITY ns_custom "http://ns.adobe.com/GenericCustomNamespace/1.0/">
	<!ENTITY ns_adobe_xpath "http://ns.adobe.com/XPath/1.0/">
]>
<svg version="1.1" id="Calque_1" xmlns:x="&ns_extend;" xmlns:i="&ns_ai;" xmlns:graph="&ns_graphs;"
	 xmlns="http://www.w3.org/2000/svg" xmlns:xlink="http://www.w3.org/1999/xlink" x="0px" y="0px" viewBox="0 0 349.16 360.77"
	 enable-background="new 0 0 349.16 360.77" xml:space="preserve">
<metadata>
	<sfw  xmlns="&ns_sfw;">
		<slices></slices>
		<sliceSourceBounds  bottomLeftOrigin="true" height="333.44" width="329.26" x="123.88" y="-430.6"></sliceSourceBounds>
	</sfw>
</metadata>
<g>
	<path d="M22.16,333.28h-6.28v4.03h5.25c0.49,0,0.85,0.11,1.09,0.33c0.24,0.22,0.36,0.51,0.36,0.88s-0.12,0.66-0.37,0.87
		c-0.24,0.21-0.61,0.32-1.08,0.32h-5.25v5.19c0,0.66-0.15,1.15-0.45,1.47c-0.3,0.32-0.68,0.48-1.14,0.48
		c-0.47,0-0.86-0.16-1.15-0.48c-0.3-0.32-0.45-0.81-0.45-1.46v-12.12c0-0.46,0.07-0.83,0.2-1.12c0.14-0.29,0.35-0.5,0.64-0.63
		c0.29-0.13,0.66-0.2,1.11-0.2h7.52c0.51,0,0.89,0.11,1.13,0.34c0.25,0.23,0.37,0.52,0.37,0.89c0,0.37-0.12,0.67-0.37,0.9
		C23.05,333.16,22.67,333.28,22.16,333.28z"/>
	<path d="M27.91,342.6v2.45c0,0.59-0.14,1.04-0.42,1.34c-0.28,0.3-0.63,0.45-1.06,0.45c-0.42,0-0.77-0.15-1.04-0.45
		c-0.27-0.3-0.41-0.75-0.41-1.33v-8.16c0-1.32,0.48-1.98,1.43-1.98c0.49,0,0.84,0.15,1.05,0.46s0.33,0.76,0.35,1.36
		c0.35-0.6,0.71-1.06,1.08-1.36c0.37-0.31,0.86-0.46,1.48-0.46c0.62,0,1.21,0.15,1.79,0.46c0.58,0.31,0.87,0.72,0.87,1.22
		c0,0.36-0.12,0.65-0.37,0.89c-0.25,0.23-0.51,0.35-0.8,0.35c-0.11,0-0.37-0.07-0.78-0.2c-0.41-0.13-0.78-0.2-1.09-0.2
		c-0.43,0-0.78,0.11-1.05,0.34c-0.27,0.23-0.48,0.56-0.63,1s-0.25,0.97-0.31,1.58C27.94,340.97,27.91,341.72,27.91,342.6z"/>
	<path d="M42.27,341.59h-5.74c0.01,0.67,0.14,1.25,0.4,1.76c0.26,0.51,0.61,0.89,1.04,1.15c0.43,0.26,0.91,0.39,1.43,0.39
		c0.35,0,0.67-0.04,0.96-0.12c0.29-0.08,0.57-0.21,0.84-0.39c0.27-0.18,0.52-0.36,0.75-0.56c0.23-0.2,0.53-0.47,0.89-0.82
		c0.15-0.13,0.37-0.19,0.64-0.19c0.3,0,0.54,0.08,0.73,0.25c0.19,0.17,0.28,0.4,0.28,0.7c0,0.26-0.1,0.57-0.31,0.93
		c-0.21,0.35-0.52,0.69-0.94,1.02c-0.42,0.33-0.95,0.6-1.58,0.81s-1.36,0.32-2.19,0.32c-1.88,0-3.35-0.54-4.39-1.61
		c-1.05-1.07-1.57-2.53-1.57-4.37c0-0.87,0.13-1.67,0.39-2.41c0.26-0.74,0.63-1.38,1.13-1.91s1.1-0.94,1.83-1.22
		c0.72-0.28,1.53-0.42,2.41-0.42c1.15,0,2.13,0.24,2.95,0.73c0.82,0.48,1.43,1.11,1.84,1.87s0.61,1.55,0.61,2.34
		c0,0.74-0.21,1.22-0.63,1.43C43.63,341.48,43.04,341.59,42.27,341.59z M36.53,339.93h5.32c-0.07-1-0.34-1.75-0.81-2.25
		c-0.47-0.5-1.09-0.75-1.85-0.75c-0.73,0-1.33,0.25-1.8,0.76C36.92,338.19,36.63,338.94,36.53,339.93z"/>
	<path d="M55.34,341.59h-5.74c0.01,0.67,0.14,1.25,0.4,1.76c0.26,0.51,0.61,0.89,1.04,1.15c0.43,0.26,0.91,0.39,1.43,0.39
		c0.35,0,0.67-0.04,0.96-0.12c0.29-0.08,0.57-0.21,0.84-0.39c0.27-0.18,0.52-0.36,0.75-0.56c0.23-0.2,0.53-0.47,0.89-0.82
		c0.15-0.13,0.37-0.19,0.64-0.19c0.3,0,0.54,0.08,0.73,0.25c0.19,0.17,0.28,0.4,0.28,0.7c0,0.26-0.1,0.57-0.31,0.93
		c-0.21,0.35-0.52,0.69-0.94,1.02c-0.42,0.33-0.95,0.6-1.58,0.81s-1.36,0.32-2.19,0.32c-1.88,0-3.35-0.54-4.39-1.61
		c-1.05-1.07-1.57-2.53-1.57-4.37c0-0.87,0.13-1.67,0.39-2.41c0.26-0.74,0.63-1.38,1.13-1.91s1.1-0.94,1.83-1.22
		c0.72-0.28,1.53-0.42,2.41-0.42c1.15,0,2.13,0.24,2.95,0.73c0.82,0.48,1.43,1.11,1.84,1.87s0.61,1.55,0.61,2.34
		c0,0.74-0.21,1.22-0.63,1.43C56.7,341.48,56.11,341.59,55.34,341.59z M49.61,339.93h5.32c-0.07-1-0.34-1.75-0.81-2.25
		c-0.47-0.5-1.09-0.75-1.85-0.75c-0.73,0-1.33,0.25-1.8,0.76C49.99,338.19,49.71,338.94,49.61,339.93z"/>
	<path d="M72.86,330.55c1.63,0,3.03,0.33,4.21,0.99c1.17,0.66,2.06,1.6,2.66,2.83c0.6,1.22,0.9,2.65,0.9,4.3
		c0,1.22-0.17,2.32-0.49,3.32c-0.33,0.99-0.82,1.86-1.48,2.59c-0.66,0.73-1.47,1.29-2.43,1.68c-0.96,0.39-2.06,0.58-3.3,0.58
		c-1.23,0-2.33-0.2-3.31-0.6c-0.97-0.4-1.79-0.96-2.44-1.68c-0.65-0.72-1.14-1.59-1.48-2.61c-0.33-1.02-0.5-2.12-0.5-3.3
		c0-1.21,0.17-2.32,0.52-3.33c0.35-1.01,0.85-1.87,1.51-2.58c0.66-0.71,1.46-1.25,2.41-1.63C70.59,330.74,71.66,330.55,72.86,330.55
		z M77.4,338.65c0-1.15-0.19-2.15-0.56-3c-0.37-0.84-0.9-1.48-1.6-1.92c-0.69-0.43-1.48-0.65-2.38-0.65c-0.64,0-1.23,0.12-1.77,0.36
		c-0.54,0.24-1.01,0.59-1.4,1.05c-0.39,0.46-0.7,1.04-0.92,1.76c-0.23,0.71-0.34,1.51-0.34,2.4c0,0.9,0.11,1.7,0.34,2.43
		s0.54,1.32,0.96,1.8c0.41,0.48,0.88,0.83,1.42,1.07c0.53,0.24,1.12,0.35,1.76,0.35c0.82,0,1.57-0.2,2.25-0.61
		c0.68-0.41,1.23-1.04,1.63-1.89C77.19,340.94,77.4,339.89,77.4,338.65z"/>
	<path d="M85.86,336.55v0.35c0.55-0.68,1.12-1.18,1.72-1.5c0.59-0.32,1.27-0.48,2.02-0.48c0.9,0,1.73,0.23,2.49,0.7
		c0.76,0.47,1.36,1.15,1.8,2.04s0.66,1.96,0.66,3.18c0,0.9-0.13,1.73-0.38,2.49c-0.25,0.76-0.6,1.39-1.05,1.9
		c-0.44,0.51-0.97,0.91-1.57,1.18c-0.61,0.28-1.26,0.41-1.95,0.41c-0.84,0-1.54-0.17-2.11-0.5s-1.11-0.83-1.63-1.48v4.4
		c0,1.29-0.47,1.93-1.41,1.93c-0.55,0-0.92-0.17-1.1-0.5c-0.18-0.33-0.27-0.82-0.27-1.46v-12.65c0-0.56,0.12-0.98,0.37-1.25
		c0.24-0.28,0.58-0.41,1-0.41c0.42,0,0.75,0.14,1.02,0.42C85.73,335.62,85.86,336.02,85.86,336.55z M91.61,340.82
		c0-0.77-0.12-1.44-0.35-1.99c-0.24-0.55-0.56-0.98-0.98-1.28c-0.42-0.3-0.88-0.45-1.39-0.45c-0.81,0-1.49,0.32-2.05,0.96
		c-0.56,0.64-0.83,1.58-0.83,2.81c0,1.17,0.28,2.07,0.83,2.72c0.55,0.65,1.24,0.97,2.05,0.97c0.49,0,0.94-0.14,1.35-0.42
		c0.42-0.28,0.75-0.71,1-1.27C91.48,342.3,91.61,341.62,91.61,340.82z"/>
	<path d="M105.09,341.59h-5.74c0.01,0.67,0.14,1.25,0.4,1.76c0.26,0.51,0.61,0.89,1.04,1.15c0.43,0.26,0.91,0.39,1.43,0.39
		c0.35,0,0.67-0.04,0.96-0.12c0.29-0.08,0.57-0.21,0.84-0.39c0.27-0.18,0.52-0.36,0.75-0.56c0.23-0.2,0.53-0.47,0.89-0.82
		c0.15-0.13,0.37-0.19,0.64-0.19c0.3,0,0.54,0.08,0.73,0.25c0.19,0.17,0.28,0.4,0.28,0.7c0,0.26-0.1,0.57-0.31,0.93
		c-0.21,0.35-0.52,0.69-0.94,1.02c-0.42,0.33-0.95,0.6-1.58,0.81s-1.36,0.32-2.19,0.32c-1.88,0-3.35-0.54-4.39-1.61
		c-1.05-1.07-1.57-2.53-1.57-4.37c0-0.87,0.13-1.67,0.39-2.41c0.26-0.74,0.63-1.38,1.13-1.91s1.1-0.94,1.83-1.22
		c0.72-0.28,1.53-0.42,2.41-0.42c1.15,0,2.13,0.24,2.95,0.73c0.82,0.48,1.43,1.11,1.84,1.87s0.61,1.55,0.61,2.34
		c0,0.74-0.21,1.22-0.63,1.43C106.45,341.48,105.86,341.59,105.09,341.59z M99.35,339.93h5.32c-0.07-1-0.34-1.75-0.81-2.25
		c-0.47-0.5-1.09-0.75-1.85-0.75c-0.73,0-1.33,0.25-1.8,0.76C99.74,338.19,99.45,338.94,99.35,339.93z"/>
	<path d="M112.64,336.53v0.35c0.52-0.68,1.08-1.18,1.69-1.5c0.61-0.32,1.32-0.48,2.11-0.48c0.77,0,1.46,0.17,2.07,0.5
		c0.61,0.34,1.06,0.81,1.36,1.43c0.19,0.36,0.32,0.75,0.38,1.16c0.06,0.42,0.09,0.95,0.09,1.59v5.46c0,0.59-0.13,1.03-0.4,1.33
		s-0.62,0.45-1.05,0.45c-0.44,0-0.79-0.15-1.06-0.46c-0.27-0.31-0.41-0.75-0.41-1.32v-4.89c0-0.97-0.13-1.71-0.4-2.22
		c-0.27-0.51-0.8-0.77-1.61-0.77c-0.52,0-1,0.16-1.43,0.47c-0.43,0.31-0.75,0.74-0.95,1.28c-0.14,0.44-0.21,1.25-0.21,2.45v3.67
		c0,0.59-0.14,1.04-0.41,1.34c-0.28,0.3-0.63,0.45-1.07,0.45c-0.42,0-0.77-0.15-1.04-0.46c-0.27-0.31-0.41-0.75-0.41-1.32v-8.48
		c0-0.56,0.12-0.98,0.37-1.25c0.24-0.28,0.58-0.41,1-0.41c0.26,0,0.49,0.06,0.7,0.18c0.21,0.12,0.37,0.3,0.5,0.55
		C112.58,335.88,112.64,336.18,112.64,336.53z"/>
	<path d="M143.35,340.16v3.02c0,0.4-0.04,0.72-0.12,0.96c-0.08,0.24-0.22,0.46-0.44,0.65c-0.21,0.19-0.48,0.38-0.81,0.56
		c-0.95,0.52-1.87,0.89-2.75,1.13s-1.84,0.35-2.88,0.35c-1.21,0-2.31-0.19-3.31-0.56c-1-0.37-1.84-0.91-2.55-1.62
		c-0.7-0.71-1.24-1.57-1.62-2.58c-0.38-1.01-0.56-2.14-0.56-3.38c0-1.22,0.18-2.35,0.55-3.36s0.9-1.88,1.61-2.59
		s1.57-1.25,2.59-1.63c1.02-0.38,2.17-0.56,3.46-0.56c1.06,0,2,0.14,2.81,0.42c0.82,0.28,1.48,0.64,1.99,1.07
		c0.51,0.43,0.89,0.88,1.15,1.36s0.39,0.91,0.39,1.28c0,0.4-0.15,0.74-0.45,1.03c-0.3,0.28-0.65,0.42-1.07,0.42
		c-0.23,0-0.45-0.05-0.66-0.16c-0.21-0.11-0.39-0.26-0.53-0.45c-0.39-0.62-0.73-1.08-1-1.4c-0.27-0.32-0.64-0.58-1.1-0.79
		s-1.05-0.32-1.77-0.32c-0.74,0-1.4,0.13-1.98,0.38c-0.58,0.25-1.08,0.62-1.49,1.11c-0.41,0.48-0.73,1.08-0.95,1.78
		c-0.22,0.7-0.33,1.48-0.33,2.33c0,1.85,0.42,3.27,1.27,4.26c0.85,1,2.03,1.49,3.55,1.49c0.74,0,1.43-0.1,2.08-0.29
		c0.65-0.19,1.31-0.47,1.97-0.83v-2.56h-2.47c-0.59,0-1.04-0.09-1.35-0.27c-0.3-0.18-0.46-0.48-0.46-0.91
		c0-0.35,0.13-0.64,0.38-0.87c0.25-0.23,0.6-0.34,1.04-0.34h3.62c0.44,0,0.82,0.04,1.13,0.12c0.31,0.08,0.56,0.25,0.75,0.53
		C143.26,339.21,143.35,339.62,143.35,340.16z"/>
	<path d="M149.1,342.6v2.45c0,0.59-0.14,1.04-0.42,1.34c-0.28,0.3-0.63,0.45-1.06,0.45c-0.42,0-0.77-0.15-1.04-0.45
		c-0.27-0.3-0.41-0.75-0.41-1.33v-8.16c0-1.32,0.48-1.98,1.43-1.98c0.49,0,0.84,0.15,1.05,0.46s0.33,0.76,0.35,1.36
		c0.35-0.6,0.71-1.06,1.08-1.36c0.37-0.31,0.86-0.46,1.48-0.46c0.62,0,1.21,0.15,1.79,0.46s0.87,0.72,0.87,1.22
		c0,0.36-0.12,0.65-0.37,0.89c-0.25,0.23-0.51,0.35-0.8,0.35c-0.11,0-0.37-0.07-0.78-0.2c-0.41-0.13-0.78-0.2-1.09-0.2
		c-0.43,0-0.78,0.11-1.05,0.34c-0.27,0.23-0.48,0.56-0.63,1s-0.25,0.97-0.31,1.58C149.13,340.97,149.1,341.72,149.1,342.6z"/>
	<path d="M162.69,345.18c-0.71,0.55-1.4,0.96-2.06,1.24c-0.66,0.28-1.41,0.41-2.23,0.41c-0.75,0-1.41-0.15-1.98-0.45
		c-0.57-0.3-1.01-0.7-1.32-1.21c-0.31-0.51-0.46-1.06-0.46-1.65c0-0.8,0.25-1.49,0.76-2.05c0.51-0.57,1.21-0.95,2.09-1.14
		c0.19-0.04,0.65-0.14,1.39-0.29c0.74-0.15,1.37-0.29,1.9-0.41c0.53-0.13,1.1-0.28,1.71-0.46c-0.04-0.77-0.19-1.34-0.47-1.7
		c-0.28-0.36-0.85-0.54-1.71-0.54c-0.75,0-1.31,0.1-1.68,0.31s-0.7,0.52-0.97,0.93s-0.46,0.69-0.57,0.82
		c-0.11,0.13-0.35,0.2-0.71,0.2c-0.33,0-0.61-0.11-0.85-0.32c-0.24-0.21-0.36-0.48-0.36-0.81c0-0.52,0.18-1.02,0.55-1.5
		s0.93-0.89,1.71-1.2s1.74-0.47,2.89-0.47c1.29,0,2.3,0.15,3.04,0.46c0.74,0.3,1.26,0.79,1.56,1.45c0.3,0.66,0.46,1.53,0.46,2.62
		c0,0.69,0,1.27-0.01,1.75c0,0.48-0.01,1.01-0.02,1.6c0,0.55,0.09,1.13,0.27,1.72c0.18,0.6,0.27,0.98,0.27,1.15
		c0,0.3-0.14,0.57-0.42,0.82c-0.28,0.25-0.6,0.37-0.96,0.37c-0.3,0-0.6-0.14-0.89-0.42C163.33,346.13,163.02,345.72,162.69,345.18z
		 M162.5,340.94c-0.43,0.16-1.05,0.32-1.87,0.5c-0.82,0.17-1.39,0.3-1.7,0.39c-0.32,0.08-0.62,0.24-0.9,0.48
		c-0.29,0.24-0.43,0.57-0.43,1c0,0.44,0.17,0.82,0.5,1.13c0.34,0.31,0.78,0.47,1.32,0.47c0.58,0,1.12-0.13,1.61-0.38
		c0.49-0.25,0.85-0.58,1.08-0.98c0.26-0.44,0.4-1.17,0.4-2.19V340.94z"/>
	<path d="M170.77,336.55v0.35c0.55-0.68,1.12-1.18,1.72-1.5c0.59-0.32,1.27-0.48,2.02-0.48c0.9,0,1.73,0.23,2.49,0.7
		c0.76,0.47,1.36,1.15,1.8,2.04s0.66,1.96,0.66,3.18c0,0.9-0.13,1.73-0.38,2.49c-0.25,0.76-0.6,1.39-1.05,1.9
		c-0.44,0.51-0.97,0.91-1.57,1.18c-0.61,0.28-1.26,0.41-1.95,0.41c-0.84,0-1.54-0.17-2.11-0.5s-1.11-0.83-1.63-1.48v4.4
		c0,1.29-0.47,1.93-1.41,1.93c-0.55,0-0.92-0.17-1.1-0.5c-0.18-0.33-0.27-0.82-0.27-1.46v-12.65c0-0.56,0.12-0.98,0.37-1.25
		c0.24-0.28,0.58-0.41,1-0.41c0.42,0,0.75,0.14,1.02,0.42C170.64,335.62,170.77,336.02,170.77,336.55z M176.52,340.82
		c0-0.77-0.12-1.44-0.35-1.99c-0.24-0.55-0.56-0.98-0.98-1.28c-0.42-0.3-0.88-0.45-1.39-0.45c-0.81,0-1.49,0.32-2.05,0.96
		c-0.56,0.64-0.83,1.58-0.83,2.81c0,1.17,0.28,2.07,0.83,2.72c0.55,0.65,1.24,0.97,2.05,0.97c0.49,0,0.94-0.14,1.35-0.42
		c0.42-0.28,0.75-0.71,1-1.27C176.39,342.3,176.52,341.62,176.52,340.82z"/>
	<path d="M184.68,332.33v4.35c0.37-0.43,0.74-0.77,1.09-1.02s0.75-0.44,1.18-0.56c0.43-0.13,0.89-0.19,1.39-0.19
		c0.75,0,1.41,0.16,1.98,0.47c0.58,0.32,1.03,0.77,1.36,1.38c0.21,0.35,0.35,0.74,0.42,1.18c0.07,0.43,0.11,0.93,0.11,1.5v5.62
		c0,0.59-0.13,1.03-0.4,1.33s-0.62,0.45-1.07,0.45c-0.97,0-1.45-0.59-1.45-1.78v-4.95c0-0.94-0.14-1.66-0.42-2.16
		c-0.28-0.51-0.81-0.76-1.59-0.76c-0.52,0-0.99,0.15-1.41,0.45c-0.42,0.3-0.73,0.7-0.94,1.22c-0.16,0.44-0.24,1.21-0.24,2.33v3.88
		c0,0.58-0.13,1.02-0.39,1.33c-0.26,0.3-0.62,0.46-1.09,0.46c-0.97,0-1.45-0.59-1.45-1.78v-12.72c0-0.59,0.13-1.04,0.38-1.34
		c0.25-0.3,0.61-0.45,1.07-0.45c0.47,0,0.83,0.15,1.09,0.45C184.55,331.3,184.68,331.74,184.68,332.33z"/>
	<path d="M196.58,333.55c-0.41,0-0.76-0.12-1.05-0.38s-0.44-0.61-0.44-1.06c0-0.42,0.15-0.76,0.45-1.03c0.3-0.27,0.64-0.4,1.04-0.4
		c0.38,0,0.72,0.12,1.01,0.37s0.44,0.6,0.44,1.06c0,0.45-0.14,0.8-0.43,1.06C197.32,333.42,196.98,333.55,196.58,333.55z
		 M198.03,336.57v8.48c0,0.59-0.14,1.03-0.42,1.33s-0.63,0.45-1.06,0.45s-0.78-0.15-1.05-0.46s-0.4-0.75-0.4-1.32v-8.39
		c0-0.58,0.13-1.02,0.4-1.31s0.62-0.44,1.05-0.44s0.78,0.15,1.06,0.44S198.03,336.05,198.03,336.57z"/>
	<path d="M211.58,343.2c0,0.37-0.11,0.76-0.33,1.17c-0.22,0.42-0.55,0.81-1,1.19c-0.45,0.38-1.01,0.68-1.69,0.91
		s-1.45,0.34-2.3,0.34c-1.81,0-3.23-0.53-4.24-1.58c-1.02-1.06-1.53-2.47-1.53-4.25c0-1.2,0.23-2.27,0.7-3.19s1.14-1.64,2.02-2.14
		c0.88-0.5,1.93-0.76,3.16-0.76c0.76,0,1.46,0.11,2.09,0.33c0.63,0.22,1.17,0.51,1.61,0.86c0.44,0.35,0.78,0.72,1.01,1.12
		c0.23,0.4,0.35,0.77,0.35,1.11c0,0.35-0.13,0.65-0.39,0.89c-0.26,0.24-0.58,0.37-0.95,0.37c-0.24,0-0.45-0.06-0.61-0.19
		c-0.16-0.12-0.34-0.33-0.54-0.61c-0.36-0.54-0.73-0.95-1.12-1.22c-0.39-0.27-0.89-0.41-1.49-0.41c-0.87,0-1.56,0.34-2.09,1.01
		c-0.53,0.68-0.79,1.6-0.79,2.78c0,0.55,0.07,1.06,0.2,1.52c0.14,0.46,0.33,0.86,0.59,1.18c0.26,0.33,0.57,0.57,0.93,0.74
		c0.37,0.17,0.77,0.25,1.2,0.25c0.59,0,1.09-0.14,1.51-0.41c0.42-0.27,0.79-0.69,1.11-1.25c0.18-0.33,0.37-0.59,0.58-0.77
		s0.46-0.28,0.76-0.28c0.36,0,0.66,0.14,0.89,0.41C211.46,342.6,211.58,342.89,211.58,343.2z"/>
	<path d="M221.55,345.18c-0.71,0.55-1.39,0.96-2.06,1.24c-0.66,0.28-1.41,0.41-2.23,0.41c-0.75,0-1.41-0.15-1.98-0.45
		c-0.57-0.3-1.01-0.7-1.32-1.21s-0.46-1.06-0.46-1.65c0-0.8,0.25-1.49,0.76-2.05s1.21-0.95,2.09-1.14c0.19-0.04,0.65-0.14,1.39-0.29
		s1.37-0.29,1.9-0.41c0.53-0.13,1.1-0.28,1.71-0.46c-0.04-0.77-0.19-1.34-0.47-1.7c-0.28-0.36-0.85-0.54-1.71-0.54
		c-0.75,0-1.3,0.1-1.68,0.31c-0.38,0.21-0.7,0.52-0.97,0.93c-0.27,0.42-0.46,0.69-0.57,0.82c-0.11,0.13-0.35,0.2-0.71,0.2
		c-0.33,0-0.61-0.11-0.85-0.32c-0.24-0.21-0.36-0.48-0.36-0.81c0-0.52,0.18-1.02,0.55-1.5s0.93-0.89,1.71-1.2s1.74-0.47,2.89-0.47
		c1.29,0,2.3,0.15,3.04,0.46c0.74,0.3,1.26,0.79,1.56,1.45c0.3,0.66,0.46,1.53,0.46,2.62c0,0.69,0,1.27,0,1.75
		c0,0.48-0.01,1.01-0.02,1.6c0,0.55,0.09,1.13,0.27,1.72c0.18,0.6,0.27,0.98,0.27,1.15c0,0.3-0.14,0.57-0.42,0.82
		c-0.28,0.25-0.6,0.37-0.96,0.37c-0.3,0-0.6-0.14-0.89-0.42C222.19,346.13,221.88,345.72,221.55,345.18z M221.35,340.94
		c-0.43,0.16-1.05,0.32-1.87,0.5c-0.82,0.17-1.39,0.3-1.7,0.39c-0.32,0.08-0.62,0.24-0.9,0.48c-0.29,0.24-0.43,0.57-0.43,1
		c0,0.44,0.17,0.82,0.5,1.13c0.34,0.31,0.78,0.47,1.32,0.47c0.58,0,1.12-0.13,1.61-0.38c0.49-0.25,0.85-0.58,1.08-0.98
		c0.26-0.44,0.4-1.17,0.4-2.19V340.94z"/>
	<path d="M227.21,345.05v-12.72c0-0.59,0.13-1.03,0.39-1.33c0.26-0.3,0.61-0.45,1.06-0.45s0.8,0.15,1.07,0.45
		c0.27,0.3,0.41,0.74,0.41,1.34v12.72c0,0.59-0.14,1.04-0.41,1.34c-0.28,0.3-0.63,0.45-1.07,0.45c-0.43,0-0.78-0.15-1.05-0.46
		C227.34,346.06,227.21,345.62,227.21,345.05z"/>
	<path d="M242,332.48v11.46h6.47c0.52,0,0.91,0.12,1.19,0.38c0.28,0.25,0.41,0.57,0.41,0.95c0,0.39-0.14,0.7-0.41,0.94
		c-0.27,0.24-0.67,0.36-1.19,0.36h-7.7c-0.69,0-1.19-0.15-1.5-0.46c-0.3-0.31-0.46-0.81-0.46-1.49v-12.13
		c0-0.64,0.14-1.13,0.44-1.45c0.29-0.32,0.67-0.48,1.14-0.48c0.48,0,0.87,0.16,1.17,0.48C241.85,331.34,242,331.83,242,332.48z"/>
	<path d="M259.37,345.18c-0.71,0.55-1.39,0.96-2.06,1.24c-0.66,0.28-1.41,0.41-2.23,0.41c-0.75,0-1.41-0.15-1.98-0.45
		c-0.57-0.3-1.01-0.7-1.32-1.21s-0.46-1.06-0.46-1.65c0-0.8,0.25-1.49,0.76-2.05s1.21-0.95,2.09-1.14c0.19-0.04,0.65-0.14,1.39-0.29
		s1.37-0.29,1.9-0.41c0.53-0.13,1.1-0.28,1.71-0.46c-0.04-0.77-0.19-1.34-0.47-1.7c-0.28-0.36-0.85-0.54-1.71-0.54
		c-0.75,0-1.3,0.1-1.68,0.31c-0.38,0.21-0.7,0.52-0.97,0.93c-0.27,0.42-0.46,0.69-0.57,0.82c-0.11,0.13-0.35,0.2-0.71,0.2
		c-0.33,0-0.61-0.11-0.85-0.32c-0.24-0.21-0.36-0.48-0.36-0.81c0-0.52,0.18-1.02,0.55-1.5s0.93-0.89,1.71-1.2s1.74-0.47,2.89-0.47
		c1.29,0,2.3,0.15,3.04,0.46c0.74,0.3,1.26,0.79,1.56,1.45c0.3,0.66,0.46,1.53,0.46,2.62c0,0.69,0,1.27,0,1.75
		c0,0.48-0.01,1.01-0.02,1.6c0,0.55,0.09,1.13,0.27,1.72c0.18,0.6,0.27,0.98,0.27,1.15c0,0.3-0.14,0.57-0.42,0.82
		c-0.28,0.25-0.6,0.37-0.96,0.37c-0.3,0-0.6-0.14-0.89-0.42C260.01,346.13,259.7,345.72,259.37,345.18z M259.18,340.94
		c-0.43,0.16-1.05,0.32-1.87,0.5c-0.82,0.17-1.39,0.3-1.7,0.39c-0.32,0.08-0.62,0.24-0.9,0.48c-0.29,0.24-0.43,0.57-0.43,1
		c0,0.44,0.17,0.82,0.5,1.13c0.34,0.31,0.78,0.47,1.32,0.47c0.58,0,1.12-0.13,1.61-0.38c0.49-0.25,0.85-0.58,1.08-0.98
		c0.26-0.44,0.4-1.17,0.4-2.19V340.94z"/>
	<path d="M267.7,336.53v0.35c0.52-0.68,1.08-1.18,1.69-1.5c0.61-0.32,1.32-0.48,2.11-0.48c0.77,0,1.46,0.17,2.07,0.5
		s1.06,0.81,1.36,1.43c0.19,0.36,0.32,0.75,0.38,1.16s0.09,0.95,0.09,1.59v5.46c0,0.59-0.13,1.03-0.4,1.33
		c-0.27,0.3-0.62,0.45-1.05,0.45c-0.44,0-0.79-0.15-1.06-0.46s-0.41-0.75-0.41-1.32v-4.89c0-0.97-0.13-1.71-0.4-2.22
		c-0.27-0.51-0.8-0.77-1.61-0.77c-0.52,0-1,0.16-1.43,0.47c-0.43,0.31-0.75,0.74-0.95,1.28c-0.14,0.44-0.21,1.25-0.21,2.45v3.67
		c0,0.59-0.14,1.04-0.41,1.34c-0.28,0.3-0.63,0.45-1.07,0.45c-0.42,0-0.77-0.15-1.04-0.46s-0.41-0.75-0.41-1.32v-8.48
		c0-0.56,0.12-0.98,0.37-1.25c0.24-0.28,0.58-0.41,1-0.41c0.26,0,0.49,0.06,0.7,0.18s0.37,0.3,0.5,0.55
		C267.63,335.88,267.7,336.18,267.7,336.53z"/>
	<path d="M289.1,337.06v8.52c0,0.97-0.1,1.81-0.31,2.51s-0.54,1.28-1,1.74s-1.06,0.8-1.8,1.02c-0.74,0.22-1.66,0.33-2.77,0.33
		c-1.01,0-1.91-0.14-2.71-0.42c-0.79-0.28-1.41-0.65-1.84-1.1c-0.43-0.45-0.64-0.91-0.64-1.38c0-0.36,0.12-0.65,0.37-0.88
		c0.24-0.23,0.54-0.34,0.88-0.34c0.43,0,0.81,0.19,1.13,0.57c0.16,0.19,0.32,0.39,0.49,0.59c0.17,0.2,0.36,0.37,0.56,0.5
		c0.21,0.14,0.45,0.24,0.74,0.31c0.29,0.07,0.62,0.1,0.99,0.1c0.76,0,1.35-0.11,1.77-0.32c0.42-0.21,0.71-0.51,0.88-0.89
		c0.17-0.38,0.27-0.79,0.29-1.22c0.03-0.43,0.05-1.13,0.06-2.09c-0.45,0.63-0.97,1.11-1.56,1.44c-0.59,0.33-1.29,0.49-2.11,0.49
		c-0.98,0-1.84-0.25-2.57-0.75c-0.73-0.5-1.3-1.2-1.69-2.11s-0.59-1.94-0.59-3.13c0-0.88,0.12-1.68,0.36-2.38
		c0.24-0.71,0.58-1.31,1.03-1.79s0.96-0.85,1.54-1.1c0.58-0.25,1.22-0.37,1.91-0.37c0.83,0,1.55,0.16,2.16,0.48
		c0.61,0.32,1.17,0.82,1.7,1.5v-0.4c0-0.51,0.12-0.9,0.38-1.18s0.57-0.42,0.97-0.42c0.57,0,0.94,0.18,1.13,0.55
		C289.01,335.83,289.1,336.36,289.1,337.06z M280.61,340.77c0,1.19,0.26,2.09,0.78,2.7c0.52,0.61,1.19,0.91,2.01,0.91
		c0.49,0,0.95-0.13,1.38-0.39c0.43-0.26,0.79-0.66,1.06-1.18c0.27-0.53,0.41-1.17,0.41-1.92c0-1.2-0.26-2.13-0.79-2.79
		c-0.53-0.67-1.22-1-2.08-1c-0.84,0-1.51,0.32-2.01,0.96C280.86,338.69,280.61,339.6,280.61,340.77z"/>
	<path d="M299.69,345.18v-0.38c-0.35,0.44-0.72,0.82-1.11,1.12s-0.81,0.52-1.27,0.67c-0.46,0.15-0.98,0.22-1.57,0.22
		c-0.71,0-1.34-0.15-1.91-0.44c-0.56-0.29-1-0.7-1.3-1.21c-0.37-0.62-0.55-1.52-0.55-2.69v-5.81c0-0.59,0.13-1.03,0.4-1.32
		c0.26-0.29,0.62-0.43,1.05-0.43c0.44,0,0.8,0.15,1.07,0.44s0.41,0.73,0.41,1.31v4.69c0,0.68,0.06,1.25,0.17,1.71
		c0.11,0.46,0.32,0.82,0.62,1.08c0.3,0.26,0.7,0.39,1.21,0.39c0.49,0,0.96-0.15,1.4-0.44s0.76-0.68,0.96-1.15
		c0.17-0.41,0.25-1.32,0.25-2.73v-3.57c0-0.58,0.14-1.02,0.41-1.31s0.63-0.44,1.06-0.44s0.79,0.15,1.05,0.43
		c0.26,0.29,0.4,0.73,0.4,1.32v8.5c0,0.56-0.13,0.98-0.38,1.26c-0.25,0.28-0.58,0.42-0.98,0.42s-0.73-0.15-0.99-0.43
		C299.82,346.11,299.69,345.7,299.69,345.18z"/>
	<path d="M312.77,345.18c-0.71,0.55-1.39,0.96-2.06,1.24c-0.66,0.28-1.41,0.41-2.23,0.41c-0.75,0-1.41-0.15-1.98-0.45
		c-0.57-0.3-1.01-0.7-1.32-1.21s-0.46-1.06-0.46-1.65c0-0.8,0.25-1.49,0.76-2.05s1.21-0.95,2.09-1.14c0.19-0.04,0.65-0.14,1.39-0.29
		s1.37-0.29,1.9-0.41c0.53-0.13,1.1-0.28,1.71-0.46c-0.04-0.77-0.19-1.34-0.47-1.7c-0.28-0.36-0.85-0.54-1.71-0.54
		c-0.75,0-1.3,0.1-1.68,0.31c-0.38,0.21-0.7,0.52-0.97,0.93c-0.27,0.42-0.46,0.69-0.57,0.82c-0.11,0.13-0.35,0.2-0.71,0.2
		c-0.33,0-0.61-0.11-0.85-0.32c-0.24-0.21-0.36-0.48-0.36-0.81c0-0.52,0.18-1.02,0.55-1.5s0.93-0.89,1.71-1.2s1.74-0.47,2.89-0.47
		c1.29,0,2.3,0.15,3.04,0.46c0.74,0.3,1.26,0.79,1.56,1.45c0.3,0.66,0.46,1.53,0.46,2.62c0,0.69,0,1.27,0,1.75
		c0,0.48-0.01,1.01-0.02,1.6c0,0.55,0.09,1.13,0.27,1.72c0.18,0.6,0.27,0.98,0.27,1.15c0,0.3-0.14,0.57-0.42,0.82
		c-0.28,0.25-0.6,0.37-0.96,0.37c-0.3,0-0.6-0.14-0.89-0.42C313.41,346.13,313.1,345.72,312.77,345.18z M312.58,340.94
		c-0.43,0.16-1.05,0.32-1.87,0.5c-0.82,0.17-1.39,0.3-1.7,0.39c-0.32,0.08-0.62,0.24-0.9,0.48c-0.29,0.24-0.43,0.57-0.43,1
		c0,0.44,0.17,0.82,0.5,1.13c0.34,0.31,0.78,0.47,1.32,0.47c0.58,0,1.12-0.13,1.61-0.38c0.49-0.25,0.85-0.58,1.08-0.98
		c0.26-0.44,0.4-1.17,0.4-2.19V340.94z"/>
	<path d="M328.93,337.06v8.52c0,0.97-0.1,1.81-0.31,2.51s-0.54,1.28-1,1.74s-1.06,0.8-1.8,1.02c-0.74,0.22-1.66,0.33-2.77,0.33
		c-1.01,0-1.91-0.14-2.71-0.42c-0.79-0.28-1.41-0.65-1.84-1.1c-0.43-0.45-0.64-0.91-0.64-1.38c0-0.36,0.12-0.65,0.37-0.88
		c0.24-0.23,0.54-0.34,0.88-0.34c0.43,0,0.81,0.19,1.13,0.57c0.16,0.19,0.32,0.39,0.49,0.59c0.17,0.2,0.36,0.37,0.56,0.5
		c0.21,0.14,0.45,0.24,0.74,0.31c0.29,0.07,0.62,0.1,0.99,0.1c0.76,0,1.35-0.11,1.77-0.32c0.42-0.21,0.71-0.51,0.88-0.89
		c0.17-0.38,0.27-0.79,0.29-1.22c0.03-0.43,0.05-1.13,0.06-2.09c-0.45,0.63-0.97,1.11-1.56,1.44c-0.59,0.33-1.29,0.49-2.11,0.49
		c-0.98,0-1.84-0.25-2.57-0.75c-0.73-0.5-1.3-1.2-1.69-2.11s-0.59-1.94-0.59-3.13c0-0.88,0.12-1.68,0.36-2.38
		c0.24-0.71,0.58-1.31,1.03-1.79s0.96-0.85,1.54-1.1c0.58-0.25,1.22-0.37,1.91-0.37c0.83,0,1.55,0.16,2.16,0.48
		c0.61,0.32,1.17,0.82,1.7,1.5v-0.4c0-0.51,0.12-0.9,0.38-1.18s0.57-0.42,0.97-0.42c0.57,0,0.94,0.18,1.13,0.55
		C328.83,335.83,328.93,336.36,328.93,337.06z M320.43,340.77c0,1.19,0.26,2.09,0.78,2.7c0.52,0.61,1.19,0.91,2.01,0.91
		c0.49,0,0.95-0.13,1.38-0.39c0.43-0.26,0.79-0.66,1.06-1.18c0.27-0.53,0.41-1.17,0.41-1.92c0-1.2-0.26-2.13-0.79-2.79
		c-0.53-0.67-1.22-1-2.08-1c-0.84,0-1.51,0.32-2.01,0.96C320.68,338.69,320.43,339.6,320.43,340.77z"/>
	<path d="M339.53,341.59h-5.74c0.01,0.67,0.14,1.25,0.4,1.76c0.26,0.51,0.61,0.89,1.04,1.15c0.43,0.26,0.91,0.39,1.43,0.39
		c0.35,0,0.67-0.04,0.96-0.12c0.29-0.08,0.57-0.21,0.84-0.39c0.27-0.18,0.52-0.36,0.75-0.56s0.53-0.47,0.89-0.82
		c0.15-0.13,0.37-0.19,0.64-0.19c0.3,0,0.54,0.08,0.73,0.25s0.28,0.4,0.28,0.7c0,0.26-0.1,0.57-0.31,0.93
		c-0.21,0.35-0.52,0.69-0.94,1.02c-0.42,0.33-0.95,0.6-1.58,0.81c-0.63,0.21-1.36,0.32-2.19,0.32c-1.88,0-3.35-0.54-4.39-1.61
		s-1.57-2.53-1.57-4.37c0-0.87,0.13-1.67,0.39-2.41c0.26-0.74,0.63-1.38,1.13-1.91s1.1-0.94,1.83-1.22
		c0.72-0.28,1.53-0.42,2.41-0.42c1.15,0,2.13,0.24,2.95,0.73c0.82,0.48,1.43,1.11,1.84,1.87s0.61,1.55,0.61,2.34
		c0,0.74-0.21,1.22-0.63,1.43C340.89,341.48,340.29,341.59,339.53,341.59z M333.79,339.93h5.32c-0.07-1-0.34-1.75-0.81-2.25
		c-0.47-0.5-1.09-0.75-1.85-0.75c-0.73,0-1.33,0.25-1.8,0.76C334.18,338.19,333.89,338.94,333.79,339.93z"/>
</g>
<g>
	<g>
		<defs>
			<path id="XMLID_00000084515877928069691070000013566807142819768758_" d="M278.73,179.13l-19.44,25.17
				c26.22-3.3,47.98-16.97,58.06-40.9c1.6-3.8,4.37-14.15,1.11-17.37c-10.71-5.37-34.46,1.09-44.31,8.04
				c0.65,7.29-0.2,13.79-2.54,20.95c2.98-1.97,4.95-4.23,7.46-6.37c6.5-5.55,13.64-9.89,21.77-13.27
				C292.72,163.75,285.87,169.89,278.73,179.13z"/>
		</defs>
		<use xlink:href="#XMLID_00000084515877928069691070000013566807142819768758_"  overflow="visible" fill="#A2C85C"/>
		<clipPath id="XMLID_00000153669278380359560320000010100488893916193931_">
			<use xlink:href="#XMLID_00000084515877928069691070000013566807142819768758_"  overflow="visible"/>
		</clipPath>
		<path clip-path="url(#XMLID_00000153669278380359560320000010100488893916193931_)" fill="#6DB343" d="M280.89,149.26l0.97,9.39
			c0,0,19.65-10.65,30.19-8.52c-19.32,3.56-30.1,11.13-30.1,11.13s0.19,6.19,0,7.45c-0.19,1.26-12.1,7.84-12.1,7.84l2.03-24
			L280.89,149.26z"/>
		<path clip-path="url(#XMLID_00000153669278380359560320000010100488893916193931_)" fill="#6DB343" d="M283.44,171.92
			c0,0,1.8,5.11,7.9,7.43c6.1,2.32,16.84,3,16.84,3l-18.55,16.74l-25.49,5.21l-4.86,0.5v-3.68L283.44,171.92z"/>
	</g>
	<path fill="#284728" d="M299.91,199.65c0.76-1.16,1.87-1.85,3.03-2.77c9.99-7.91,17.73-17.77,22.61-29.63
		c3.71-9.02,6.67-25.27-6.44-28.27c-9.52-2.17-19.3-1.24-28.86,1.01c-4.61,1.08-8.45,3.26-13.52,4.11
		c15.87-14.74,20.37-44.31,9.21-60.16l-3.23-4.59c10.41-19.04,5.89-43.83-12.85-55.24c-6.02-3.67-12.79-5.45-19.71-6.09
		c-18.42-1.69-35.2,7.9-42.8,25c-6.63-1.79-13.17-2.63-20-3.25c-15.42-0.94-30.73-0.98-45.65,3.06
		c-7.15-15.41-21.85-24.8-38.46-25.07C89.24,17.52,76,22.78,68.03,34.53c-9.02,13.3-9.21,30.73-1.38,44.68
		c-3.17,3.56-5.33,7.22-6.98,11.61c-5.9,15.74-2.75,33.05,7.18,46.48l5.53,7.47c-12.86-5.41-25.54-8.11-38.8-6.33
		c-4.18,0.56-8.82,1.79-11.19,5.43c-2.55,3.93-2.13,8.98-1.41,13.51c2.82,17.6,14.8,32.23,28.95,42l-10.8,1.61
		c-6.24,0.93-12.13,3.21-16.92,7.33c-1.03,0.88-1.81,2.28-2.51,3.33c-2.94,4.39-1.43,9.43,2.57,12.31
		c6.12,4.4,13.14,3.45,20.14,2.89c9.92,4.99,15.5,4.06,25.87-0.38c0.78-0.27,1.54,1.31,2.05,1.67c7.96,5.65,18,6,26.53,1.31
		c9.35,9.26,26.53,10.48,36.74,0.75c9.18,3.93,21.75,3.18,28.46-5.27c8.22-0.1,16.68-0.54,24.62,0.18
		c7.23,8.41,18.75,9.06,28.61,4.76c8.47,9.17,28.07,9.43,36.48,0.09c9.32,4.71,21.16,3.83,28.3-4.02c7.29,4.19,15.85,5.88,23.55,2.3
		c1.77-0.82,2.96-1.63,5.13-1.23c7.78,1.43,18.74-0.18,20.72-8.38C332.82,204.65,310.39,200.96,299.91,199.65z M318.46,146.07
		c3.26,3.22,0.49,13.57-1.11,17.37c-10.08,23.93-31.85,37.6-58.06,40.9l19.44-25.17c7.14-9.25,13.99-15.38,22.11-23.75
		c-8.13,3.38-15.26,7.72-21.77,13.27c-2.51,2.14-4.47,4.39-7.46,6.37c2.34-7.16,3.19-13.65,2.54-20.95
		C284.01,147.16,307.76,140.7,318.46,146.07z M39.49,219.17c-3.98,1.12-8.21,2.16-11.79-0.81c-1.31-1.09-1.38-3.82-0.22-5.22
		c3.41-4.11,8.71-5.37,13.69-3.94c9-3.45,17.59-6.54,27.08-3.51c-8.95,0.56-18.46,3-25.35,9.32
		C41.55,216.23,42.25,218.39,39.49,219.17z M46.97,219.16c-0.74-2.03,1.01-4.31,2.5-5.55c3.88-3.23,8.43-3.96,13.38-4.1
		c1.81-0.05,5.32-0.62,6.03,1.93C66.15,219.2,49.26,225.45,46.97,219.16z M31.35,161.62c-1.56-4.54-2.67-9.38-1.45-14.03
		c1.07-4.07,11.84-3.52,15.26-3.19c10.68,1.02,20.66,4.41,29.67,10.18c-0.53,7.13-0.12,13.5,2,20.21c-2.8-2.1-4.97-4.29-7.47-6.62
		c-6-5.09-12.57-9.05-20.22-12.12l12.21,12.84c5.06,5.35,9.13,10.77,13.53,16.37l14.84,18.9C64.35,201.26,40.01,186.78,31.35,161.62
		z M271.64,221.72c-2.17,4.46-14.78,4.72-18.02-1.59c-0.74-1.43-0.04-3.39-0.96-4.87c-4.68-2.31-9.37-4.03-14.53-5.58
		c3.44,3.07,6.25,6.29,7.07,10.81c0.58,3.2-0.86,6-3.87,7.46c-5.61,2.71-12.73,2.32-17.93-1.15c-3.2-2.14-4.02-5.89-2.65-9.22
		c1.1-2.68,2.85-4.46,4.81-7.16l-12.78,3.72c1.41,3.74,0.03,7.09-3.38,8.71c-4.12,1.96-8.55,2.43-12.72,0.4
		c-2.86-1.4-3.62-4.68-2.42-7.39c1.73-3.89,5.29-4.74,8.73-6.14c4.14-1.68,7.37-5.11,12.15-5.99c3.06-10.75,7.37-20.68,12.1-30.84
		c0.11-0.54-0.29-0.63-0.73-0.29c-9.51,7.36-15.37,18.46-21.13,29.09c-7.58,2.59-16.55,7.49-19.16,15.58l-24.26-0.05
		c-2.68-8.24-11.08-13.6-18.91-16.07l-5.24-9.42c-4.17-7.49-9.67-14.19-16.3-19.78l6.51,15.59c2.2,5.26,4.25,10.19,5.03,15.89
		c5.27,0.79,8.85,4.12,13.3,6.12c3.32,1.49,6.66,2.77,7.69,7.03c0.37,1.54,0.57,3.29-0.44,4.92c-0.83,1.34-2.49,1.9-4.29,2.53
		c-3.17,1.11-6.05,0.86-9.17-0.16c-4.1-1.34-6.1-4.82-5.01-9.3c-3.88-1.89-7.68-2.94-11.43-3.72c1.61,2.3,2.74,4.2,3.68,6.44
		c1.56,3.72,0.3,7.4-3.13,9.87c-4.56,3.28-11.08,3.23-16.37,1.11c-3.9-1.56-5.55-5.7-4.18-9.49c1.28-3.54,3.37-5.84,6.4-8.76
		c-3.36-0.18-10.64,3.84-13.94,5.45c-0.92,1.81-0.84,3.96-2.04,5.53c-3.54,4.64-13.74,5.3-16.82,1.38
		c-1.45-1.85-1.24-4.58-0.23-6.52c2.66-5.09,7.7-5.82,12.56-6.55c5.66-0.85,10.81-3.39,16.93-2.85c-3.99-1.03-9.61-8.34-11.88-11.94
		c-7.77-12.3-13.81-30.04-10.38-44.81c7.1,3.67,14.39,5.43,22.16,4.95c-15.96-5.72-28.41-14.56-36.45-30.17
		c-7-15.7-4.71-33.49,8.5-45.22c-5.81-6.67-8.69-15.01-8.11-24.18c0.92-14.7,12.22-27.06,26.84-28.94
		c18.61-2.39,34.01,8.73,38.41,27.05c15.86-5.87,30.83-6.72,47.63-5.9c10.39,0.71,20.32,2.32,30.04,5.94
		c1.36-3.74,2.19-6.91,3.87-10.08c10.1-18.99,35.33-22.73,50.21-10.24c14.41,12.09,15.76,32.71,3.52,46.58
		c19,17.88,13.89,45.17-4.29,61.7c-6.87,6.24-14.96,10.35-23.6,13.48c7.7,0.33,15.09-1.06,22.06-4.71
		c3.25,19.35-4.88,41.52-19.21,55.58c-0.91,0.89-2.26-0.15-3.31,0.73c3.16,0.37,6.32,0.51,9.69,1.3c1.9,0.44,4.02,2.55,5.98,2.29
		c3.77-0.5,6.66,0.07,9.91,2.36C271.02,214.28,273.45,217.99,271.64,221.72z M301.32,219.49c-1.48,2.57-5.59,2.65-8.14,2.06
		c-7.82-1.81-18.51-10.49-11.87-11.9C291.42,207.5,304.37,214.17,301.32,219.49z M316.11,220.23c-3.51,0.59-6.49-0.91-9.64-2.58
		c1.49-7.12-22.05-12.69-26.25-11.65c-4.04-1.08,9.48-1.48,8.83-1.61c-0.09,0-0.17-0.02-0.26-0.02c0.14,0.01,0.22,0.01,0.26,0.02
		c6.95,0.31,13.15,2.54,19.67,4.79c5.04-1.67,12.04,0.35,13.19,6.04C322.48,217.98,318.35,219.86,316.11,220.23z"/>
	<g>
		<defs>
			<path id="XMLID_00000177486860793046652930000006862755256502650806_" d="M205.91,201.68c5.77-10.63,11.62-21.73,21.13-29.09
				c0.44-0.34,0.85-0.25,0.73,0.29c-4.73,10.16-9.04,20.08-12.1,30.84c-4.78,0.88-8.01,4.3-12.15,5.99
				c-3.44,1.4-7.01,2.25-8.73,6.14c-1.2,2.71-0.45,5.99,2.42,7.39c4.17,2.04,8.6,1.56,12.72-0.4c3.4-1.62,4.79-4.97,3.38-8.71
				l12.78-3.72c-1.96,2.7-3.71,4.48-4.81,7.16c-1.37,3.33-0.55,7.09,2.65,9.22c5.2,3.48,12.33,3.86,17.93,1.15
				c3.02-1.46,4.45-4.27,3.87-7.46c-0.82-4.52-3.63-7.74-7.07-10.81c5.16,1.54,9.85,3.27,14.53,5.58c0.92,1.48,0.23,3.43,0.96,4.87
				c3.24,6.31,15.85,6.05,18.02,1.59c1.82-3.73-0.61-7.44-3.51-9.48c-3.25-2.29-6.14-2.86-9.91-2.36c-1.96,0.26-4.08-1.85-5.98-2.29
				c-3.37-0.78-6.54-0.92-9.69-1.3c1.05-0.88,2.41,0.17,3.31-0.73c14.33-14.07,22.46-36.24,19.21-55.58
				c-6.97,3.65-14.36,5.04-22.06,4.71c8.63-3.13,16.73-7.24,23.6-13.48c18.18-16.53,23.28-43.82,4.29-61.7
				c12.24-13.87,10.89-34.49-3.52-46.58c-14.89-12.49-40.11-8.75-50.21,10.24c-1.68,3.16-2.51,6.34-3.87,10.08
				c-9.72-3.62-19.64-5.23-30.04-5.94c-16.8-0.81-31.78,0.04-47.63,5.9c-4.4-18.32-19.79-29.43-38.41-27.05
				C83.13,28.03,71.84,40.4,70.91,55.1c-0.58,9.16,2.3,17.5,8.11,24.18c-13.21,11.73-15.5,29.53-8.5,45.22
				c8.03,15.61,20.49,24.45,36.45,30.17c-7.76,0.48-15.06-1.28-22.16-4.95c-3.43,14.77,2.6,32.5,10.38,44.81
				c2.27,3.59,7.89,10.9,11.88,11.94c-6.12-0.55-11.27,2-16.93,2.85c-4.85,0.73-9.89,1.46-12.56,6.55
				c-1.01,1.94-1.22,4.67,0.23,6.52c3.08,3.93,13.28,3.27,16.82-1.38c1.2-1.57,1.12-3.72,2.04-5.53c3.3-1.6,10.58-5.63,13.94-5.45
				c-3.03,2.91-5.12,5.22-6.4,8.76c-1.37,3.8,0.28,7.93,4.18,9.49c5.29,2.12,11.81,2.17,16.37-1.11c3.44-2.47,4.69-6.15,3.13-9.87
				c-0.94-2.24-2.07-4.15-3.68-6.44c3.75,0.78,7.56,1.83,11.43,3.72c-1.09,4.47,0.92,7.95,5.01,9.3c3.12,1.02,6,1.27,9.17,0.16
				c1.8-0.63,3.46-1.19,4.29-2.53c1.01-1.63,0.81-3.38,0.44-4.92c-1.02-4.26-4.37-5.53-7.69-7.03c-4.46-2-8.04-5.33-13.3-6.12
				c-0.78-5.7-2.84-10.63-5.03-15.89l-6.51-15.59c6.63,5.59,12.13,12.29,16.3,19.78l5.24,9.42c7.83,2.47,16.23,7.82,18.91,16.07
				l24.26,0.05C189.36,209.17,198.33,204.27,205.91,201.68z"/>
		</defs>
		<use xlink:href="#XMLID_00000177486860793046652930000006862755256502650806_"  overflow="visible" fill="#A4C95C"/>
		<clipPath id="XMLID_00000052073235069900881690000014749843213096522115_">
			<use xlink:href="#XMLID_00000177486860793046652930000006862755256502650806_"  overflow="visible"/>
		</clipPath>
		<path clip-path="url(#XMLID_00000052073235069900881690000014749843213096522115_)" fill="#EAF0CA" d="M89.71,107.06
			c0,0,1.98,23.9,24.69,39.39c16.45,9.88,20.65,9.81,20.65,9.81s-4.39,5.94-5.68,10.84c-1.29,4.9-1.94,7.29-2.13,11.42
			s12.84,23.68,12.84,23.68l7.74,4.26l9.73,11.23l4.85,2.62h25.29l4.3-10.87l20.86-8.78l8.99-23.33c0,0-0.28-8.15-7.12-18.93
			c-1.13-1.78-1.81-2.65-1.81-2.65s23.1-8.26,32.19-19.74s12.58-19.87,13.68-27.48c1.1-7.61-4.45-3.61-4.45-3.61l-25.48,9.94
			c0,0-39.1-2.06-48.26-4.39s-30.71,2.19-38.58,3.74s-17.55,1.03-26.19-1.16s-19.74-12.65-23.1-10.71
			C89.38,104.26,89.71,107.06,89.71,107.06z"/>
		<path clip-path="url(#XMLID_00000052073235069900881690000014749843213096522115_)" fill="#71B443" d="M91.16,152.46
			c0,0-1.52,13.09,4.15,27.03s12.65,24.12,13.68,24.96s-4.66,0.96-4.66,0.96l-12.11-7.86L78.3,160.39l4.39-14.71l7.02,5.42
			L91.16,152.46z"/>
		<path clip-path="url(#XMLID_00000052073235069900881690000014749843213096522115_)" fill="#71B443" d="M256.86,152.13
			c0,0,1.55,9.55-1.55,19.87c-7.35,23.74-17.16,33.16-17.16,33.16l8.57,1.55l9.62-10.46l17.72-32.15l-6.11-15.59l-3.1-2.84
			L256.86,152.13z"/>
	</g>
	<path fill="#A5C95A" d="M39.43,219.22c2.78-0.78,2.08-2.96,3.43-4.2c6.95-6.37,16.53-8.83,25.55-9.39
		c-9.56-3.05-18.22,0.06-27.29,3.54c-5.02-1.44-10.36-0.16-13.8,3.98c-1.17,1.41-1.1,4.17,0.22,5.26
		C31.15,221.4,35.41,220.35,39.43,219.22z"/>
	<path fill="#A5C95A" d="M306.48,217.65c3.15,1.66,6.13,3.16,9.64,2.58c2.23-0.37,6.37-2.25,5.81-5c-1.15-5.69-8.15-7.71-13.19-6.04
		c-6.61-2.28-12.88-4.55-19.94-4.81c2.59,0.1-12.85,0.48-8.57,1.63C284.42,204.96,307.97,210.54,306.48,217.65z"/>
	<path fill="#A5C95A" d="M68.87,211.48c-0.71-2.55-4.21-1.98-6.01-1.93c-4.94,0.14-9.47,0.86-13.34,4.08
		c-1.48,1.24-3.23,3.5-2.49,5.53C49.32,225.43,66.16,219.21,68.87,211.48z"/>
	<path fill="#A5C95A" d="M301.32,219.49c3.06-5.32-9.9-11.99-20.01-9.84c-6.63,1.41,4.05,10.09,11.87,11.9
		C295.73,222.14,299.84,222.06,301.32,219.49z"/>
	<ellipse fill="#FFFFFF" cx="246.72" cy="57.36" rx="25.21" ry="25.23"/>
	<ellipse fill="#FFFFFF" cx="102.63" cy="57.33" rx="25.21" ry="25.23"/>
	<path d="M266.71,57.36c0,11.05-8.95,20-19.99,20c-11.04,0-19.99-8.96-19.99-20s8.95-20,19.99-20
		C257.76,37.36,266.71,46.31,266.71,57.36z M260.76,50.82c0-3.33-2.69-6.02-6.02-6.02c-3.32,0-6.02,2.7-6.02,6.02
		s2.69,6.02,6.02,6.02C258.07,56.84,260.76,54.14,260.76,50.82z"/>
	<path d="M122.57,57.33c0,11.02-8.93,19.95-19.94,19.95s-19.94-8.93-19.94-19.95s8.93-19.95,19.94-19.95S122.57,46.31,122.57,57.33z
		 M116.38,50.84c0-3.33-2.7-6.03-6.03-6.03c-3.33,0-6.03,2.7-6.03,6.03c0,3.33,2.7,6.03,6.03,6.03
		C113.68,56.87,116.38,54.17,116.38,50.84z"/>
	<path d="M258.01,96.73c2.54,3.18,4.74,8.82,2.83,10.78c-0.41,0.43-1.67,1.07-2.04,0.59c-0.7-0.9-1.05-1.57-1.87-1.99
		c-0.78-0.39-1.76-0.01-2.65,0.68c-5.11,4-10.79,6.99-17.09,8.68c-4.07,1.09-7.95,2.13-12.22,2.45c-24.94,1.84-40.33-5.79-55.63-3.6
		l-22.07,3.15c-5.7,0.81-16.82,0.99-22.3,0.48c-9.28-0.87-18.1-3.14-25.96-7.98c-2.29-1.41-3.89-3.28-6.65-4.17
		c-0.31,1.49-3.42,3.29-4.27,1.65c-1.93-3.71,1.26-12.51,7.01-12.42c6.21,13.83,21.55,17.76,35.49,17.89
		c2.51,0.02,9.64,0.07,10.86-0.1c7.86-1.09,15.35-2.69,23.06-4.36c20.24-4.39,31.81,6.6,61.19,4.07c9.1-0.78,17.29-4.37,23.69-10.61
		c1.96-1.91,2.68-4.41,4.48-6.4C254.82,94.46,257.26,95.79,258.01,96.73z"/>
	<path d="M156.92,84.59c2.84-0.28,5.19,2.18,5.45,4.34c0.37,3.06-2.01,5.4-4.55,5.68c-2.74,0.3-5.09-1.45-5.52-4.23
		C151.91,87.8,153.82,84.9,156.92,84.59z"/>
	<path d="M196.39,91.64c-1.35,2.72-4.11,3.55-6.68,2.65c-2.23-0.78-3.86-3.95-2.79-6.41c1.22-2.78,4.09-3.83,6.68-2.81
		C196.01,86.03,197.77,88.85,196.39,91.64z"/>
	<g>
		<defs>
			<path id="XMLID_00000034078085355407094500000006490564148569103011_" d="M61.35,168.9l-12.21-12.84
				c7.65,3.07,14.22,7.03,20.22,12.12c2.5,2.33,4.67,4.52,7.47,6.62c-2.12-6.71-2.54-13.08-2-20.21c-9-5.77-18.99-9.16-29.67-10.18
				c-3.42-0.33-14.19-0.88-15.26,3.19c-1.22,4.64-0.11,9.49,1.45,14.03c8.66,25.15,33,39.64,58.36,42.55l-14.84-18.9
				C70.48,179.67,66.41,174.25,61.35,168.9z"/>
		</defs>
		<use xlink:href="#XMLID_00000034078085355407094500000006490564148569103011_"  overflow="visible" fill="#A4C95B"/>
		<clipPath id="XMLID_00000128478250921284895780000005447132062224282764_">
			<use xlink:href="#XMLID_00000034078085355407094500000006490564148569103011_"  overflow="visible"/>
		</clipPath>
		<path clip-path="url(#XMLID_00000128478250921284895780000005447132062224282764_)" fill="#6FB443" d="M67.41,149.55l-0.76,9.19
			c0,0-12.98-9.1-29.63-9c19.26,4.45,28.84,10.35,29.08,11.03c0.24,0.68,0,6.58,0,6.58l12.05,9.58l-1.16-25.35L67.41,149.55z"/>
		<path clip-path="url(#XMLID_00000128478250921284895780000005447132062224282764_)" fill="#6FB443" d="M64.99,171.71
			c0,0,0.1,4.84-11.71,8.71S35.76,181,35.76,181l37.84,21.87l16.11,1.3l-5.27-14.95L64.99,171.71z"/>
	</g>
</g>
<g>
	<path d="M101.25,258.18v11.75H60.61l6.79-6.79v49.76H53.6v-54.72H101.25z M60.32,280.95h39.62v11.75H60.32V280.95z"/>
	<path d="M118.83,282.26h20.5c2.58,0,4.62-0.6,6.13-1.79c1.51-1.19,2.26-2.86,2.26-5c0-2.14-0.75-3.81-2.26-5
		c-1.51-1.19-3.55-1.79-6.13-1.79h-22.47l6.2-6.79v51h-13.79v-54.72h31.88c4.09,0,7.66,0.73,10.73,2.19
		c3.06,1.46,5.45,3.48,7.15,6.06c1.7,2.58,2.55,5.59,2.55,9.05c0,3.41-0.85,6.4-2.55,8.97c-1.7,2.58-4.09,4.6-7.15,6.06
		c-3.06,1.46-6.64,2.19-10.73,2.19h-22.33V282.26z M127.66,287.3h15.54l20.14,25.61h-15.98L127.66,287.3z"/>
	<path d="M199.75,314.07c-6.42,0-12.05-1.19-16.89-3.58c-4.84-2.38-8.6-5.71-11.27-10c-2.68-4.28-4.01-9.27-4.01-14.96
		c0-5.69,1.34-10.68,4.01-14.96c2.67-4.28,6.43-7.61,11.27-10c4.84-2.38,10.47-3.58,16.89-3.58c6.42,0,12.05,1.19,16.89,3.58
		c4.84,2.38,8.61,5.72,11.31,10c2.7,4.28,4.05,9.27,4.05,14.96c0,5.69-1.35,10.68-4.05,14.96c-2.7,4.28-6.47,7.61-11.31,10
		C211.8,312.88,206.17,314.07,199.75,314.07z M199.75,301.74c3.79,0,7.05-0.64,9.78-1.93c2.72-1.29,4.83-3.15,6.31-5.58
		c1.48-2.43,2.22-5.33,2.22-8.68c0-3.36-0.74-6.25-2.22-8.68c-1.48-2.43-3.59-4.29-6.31-5.58c-2.72-1.29-5.98-1.93-9.78-1.93
		c-3.75,0-6.98,0.65-9.71,1.93c-2.72,1.29-4.84,3.15-6.35,5.58c-1.51,2.43-2.26,5.33-2.26,8.68c0,3.36,0.75,6.25,2.26,8.68
		c1.51,2.43,3.62,4.29,6.35,5.58C192.77,301.1,196,301.74,199.75,301.74z"/>
	<path d="M295.91,289.19c-0.1,3.31-0.75,6.46-1.97,9.45c-1.22,2.99-2.97,5.64-5.25,7.95c-2.29,2.31-5.11,4.13-8.46,5.47
		c-3.36,1.34-7.27,2.01-11.75,2.01c-4.28,0-8.28-0.63-12-1.9c-3.72-1.26-6.99-3.11-9.81-5.55c-2.82-2.43-5.01-5.42-6.57-8.97
		c-1.56-3.55-2.33-7.59-2.33-12.11c0-4.52,0.79-8.56,2.37-12.11c1.58-3.55,3.79-6.54,6.64-8.97c2.85-2.43,6.18-4.28,10-5.54
		c3.82-1.26,7.99-1.9,12.51-1.9c5.88,0,11,0.92,15.36,2.77c4.35,1.85,7.85,4.38,10.51,7.59c2.65,3.21,4.34,6.91,5.07,11.09h-13.94
		c-0.49-2.04-1.51-3.79-3.06-5.25c-1.56-1.46-3.51-2.59-5.87-3.39c-2.36-0.8-5.05-1.2-8.06-1.2c-3.65,0-6.79,0.65-9.41,1.93
		c-2.63,1.29-4.67,3.19-6.13,5.69c-1.46,2.51-2.19,5.61-2.19,9.3c0,3.7,0.78,6.83,2.33,9.41c1.56,2.58,3.75,4.52,6.57,5.84
		s6.15,1.97,10,1.97c3.75,0,7.04-0.56,9.89-1.68c2.85-1.12,5.11-2.72,6.79-4.82c1.68-2.09,2.64-4.6,2.88-7.52L295.91,289.19z
		 M272.05,294.74v-9.78h28.67v27.94h-9.85l-1.9-21.89l2.77,3.72H272.05z"/>
</g>
</svg>
