<?xml version="1.0" encoding="UTF-8"?>
<svg id="Calque_1" data-name="Calque 1" xmlns="http://www.w3.org/2000/svg" xmlns:xlink="http://www.w3.org/1999/xlink" viewBox="0 0 331.87 333.46">
  <defs>
    <style>
      .cls-1 {
        fill: #a4c95b;
      }

      .cls-2 {
        font-family: Unbounded-SemiBold, Unbounded;
        font-size: 72.96px;
        font-weight: 600;
      }

      .cls-2, .cls-3 {
        fill: #1d1d1b;
      }

      .cls-4 {
        fill: #eaf0ca;
      }

      .cls-5 {
        fill: #71b443;
      }

      .cls-6 {
        letter-spacing: 0em;
      }

      .cls-3 {
        font-family: ArialRoundedMTBold, 'Arial Rounded MT Bold';
        font-size: 22px;
      }

      .cls-7 {
        fill: #fff;
      }

      .cls-8 {
        fill: #284728;
      }

      .cls-9 {
        letter-spacing: -.04em;
      }

      .cls-10 {
        fill: #a4c95c;
      }

      .cls-11 {
        clip-path: url(#clippath-1);
      }

      .cls-12 {
        fill: #a5c95a;
      }

      .cls-13 {
        letter-spacing: -.01em;
      }

      .cls-14 {
        letter-spacing: 0em;
      }

      .cls-15 {
        fill: #a2c85c;
      }

      .cls-16 {
        letter-spacing: -.02em;
      }

      .cls-17 {
        letter-spacing: -.02em;
      }

      .cls-18 {
        clip-path: url(#clippath-2);
      }

      .cls-19 {
        clip-path: url(#clippath);
      }

      .cls-20 {
        fill: #6db343;
      }

      .cls-21 {
        fill: #6fb443;
      }
    </style>
    <clipPath id="clippath">
      <path class="cls-15" d="M267.69,161.39l-19.44,25.17c26.22-3.3,47.98-16.97,58.06-40.9,1.6-3.8,4.37-14.15,1.11-17.37-10.71-5.37-34.46,1.09-44.31,8.04.65,7.29-.2,13.79-2.54,20.95,2.98-1.97,4.95-4.23,7.46-6.37,6.5-5.55,13.64-9.89,21.77-13.27-8.12,8.36-14.97,14.5-22.11,23.75Z"/>
    </clipPath>
    <clipPath id="clippath-1">
      <path class="cls-10" d="M194.87,183.94c5.77-10.63,11.62-21.73,21.13-29.09.44-.34.85-.25.73.29-4.73,10.16-9.04,20.08-12.1,30.84-4.78.88-8.01,4.3-12.15,5.99-3.44,1.4-7.01,2.25-8.73,6.14-1.2,2.71-.45,5.99,2.42,7.39,4.17,2.04,8.6,1.56,12.72-.4,3.4-1.62,4.79-4.97,3.38-8.71l12.78-3.72c-1.96,2.7-3.71,4.48-4.81,7.16-1.37,3.33-.55,7.09,2.65,9.22,5.2,3.48,12.33,3.86,17.93,1.15,3.02-1.46,4.45-4.27,3.87-7.46-.82-4.52-3.63-7.74-7.07-10.81,5.16,1.54,9.85,3.27,14.53,5.58.92,1.48.23,3.43.96,4.87,3.24,6.31,15.85,6.05,18.02,1.59,1.82-3.73-.61-7.44-3.51-9.48-3.25-2.29-6.14-2.86-9.91-2.36-1.96.26-4.08-1.85-5.98-2.29-3.37-.78-6.54-.92-9.69-1.3,1.05-.88,2.41.17,3.31-.73,14.33-14.07,22.46-36.24,19.21-55.58-6.97,3.65-14.36,5.04-22.06,4.71,8.63-3.13,16.73-7.24,23.6-13.48,18.18-16.53,23.28-43.82,4.29-61.7,12.24-13.87,10.89-34.49-3.52-46.58-14.89-12.49-40.11-8.75-50.21,10.24-1.68,3.16-2.51,6.34-3.87,10.08-9.72-3.62-19.64-5.23-30.04-5.94-16.8-.81-31.78.04-47.63,5.9-4.4-18.32-19.79-29.43-38.41-27.05-14.62,1.87-25.91,14.24-26.84,28.94-.58,9.16,2.3,17.5,8.11,24.18-13.21,11.73-15.5,29.53-8.5,45.22,8.03,15.61,20.49,24.45,36.45,30.17-7.76.48-15.06-1.28-22.16-4.95-3.43,14.77,2.6,32.5,10.38,44.81,2.27,3.59,7.89,10.9,11.88,11.94-6.12-.55-11.27,2-16.93,2.85-4.85.73-9.89,1.46-12.56,6.55-1.01,1.94-1.22,4.67.23,6.52,3.08,3.93,13.28,3.27,16.82-1.38,1.2-1.57,1.12-3.72,2.04-5.53,3.3-1.6,10.58-5.63,13.94-5.45-3.03,2.91-5.12,5.22-6.4,8.76-1.37,3.8.28,7.93,4.18,9.49,5.29,2.12,11.81,2.17,16.37-1.11,3.44-2.47,4.69-6.15,3.13-9.87-.94-2.24-2.07-4.15-3.68-6.44,3.75.78,7.56,1.83,11.43,3.72-1.09,4.47.92,7.95,5.01,9.3,3.12,1.02,6,1.27,9.17.16,1.8-.63,3.46-1.19,4.29-2.53,1.01-1.63.81-3.38.44-4.92-1.02-4.26-4.37-5.53-7.69-7.03-4.46-2-8.04-5.33-13.3-6.12-.78-5.7-2.84-10.63-5.03-15.89l-6.51-15.59c6.63,5.59,12.13,12.29,16.3,19.78l5.24,9.42c7.83,2.47,16.23,7.82,18.91,16.07l24.26.05c2.61-8.09,11.58-13,19.16-15.58Z"/>
    </clipPath>
    <clipPath id="clippath-2">
      <path class="cls-1" d="M50.32,151.15l-12.21-12.84c7.65,3.07,14.22,7.03,20.22,12.12,2.5,2.33,4.67,4.52,7.47,6.62-2.12-6.71-2.54-13.08-2-20.21-9-5.77-18.99-9.16-29.67-10.18-3.42-.33-14.19-.88-15.26,3.19-1.22,4.64-.11,9.49,1.45,14.03,8.66,25.15,33,39.64,58.36,42.55l-14.84-18.9c-4.4-5.6-8.47-11.02-13.53-16.37Z"/>
    </clipPath>
  </defs>
  <text class="cls-3" transform="translate(0 328.82)"><tspan class="cls-9" x="0" y="0">F</tspan><tspan class="cls-17" x="12.45" y="0">r</tspan><tspan x="21.54" y="0">ee Open G</tspan><tspan class="cls-17" x="133.64" y="0">r</tspan><tspan class="cls-13" x="142.73" y="0">a</tspan><tspan x="155.51" y="0">phical Langu</tspan><tspan class="cls-13" x="292.81" y="0">a</tspan><tspan class="cls-16" x="305.59" y="0">g</tspan><tspan class="cls-14" x="318.8" y="0">e</tspan></text>
  <g>
    <g>
      <path class="cls-15" d="M267.69,161.39l-19.44,25.17c26.22-3.3,47.98-16.97,58.06-40.9,1.6-3.8,4.37-14.15,1.11-17.37-10.71-5.37-34.46,1.09-44.31,8.04.65,7.29-.2,13.79-2.54,20.95,2.98-1.97,4.95-4.23,7.46-6.37,6.5-5.55,13.64-9.89,21.77-13.27-8.12,8.36-14.97,14.5-22.11,23.75Z"/>
      <g class="cls-19">
        <path class="cls-20" d="M269.86,131.51l.97,9.39s19.65-10.65,30.19-8.52c-19.32,3.56-30.1,11.13-30.1,11.13,0,0,.19,6.19,0,7.45s-12.1,7.84-12.1,7.84l2.03-24,9-3.29Z"/>
        <path class="cls-20" d="M272.41,154.18s1.8,5.11,7.9,7.43,16.84,3,16.84,3l-18.55,16.74-25.49,5.21-4.86.5v-3.68l24.15-29.21Z"/>
      </g>
    </g>
    <path class="cls-8" d="M288.88,181.91c.76-1.16,1.87-1.85,3.03-2.77,9.99-7.91,17.73-17.77,22.61-29.63,3.71-9.02,6.67-25.27-6.44-28.27-9.52-2.17-19.3-1.24-28.86,1.01-4.61,1.08-8.45,3.26-13.52,4.11,15.87-14.74,20.37-44.31,9.21-60.16l-3.23-4.59c10.41-19.04,5.89-43.83-12.85-55.24-6.02-3.67-12.79-5.45-19.71-6.09-18.42-1.69-35.2,7.9-42.8,25-6.63-1.79-13.17-2.63-20-3.25-15.42-.94-30.73-.98-45.65,3.06C123.5,9.67,108.81.28,92.2,0c-13.99-.23-27.24,5.03-35.21,16.78-9.02,13.3-9.21,30.73-1.38,44.68-3.17,3.56-5.33,7.22-6.98,11.61-5.9,15.74-2.75,33.05,7.18,46.48l5.53,7.47c-12.86-5.41-25.54-8.11-38.8-6.33-4.18.56-8.82,1.79-11.19,5.43-2.55,3.93-2.13,8.98-1.41,13.51,2.82,17.6,14.8,32.23,28.95,42l-10.8,1.61c-6.24.93-12.13,3.21-16.92,7.33-1.03.88-1.81,2.28-2.51,3.33-2.94,4.39-1.43,9.43,2.57,12.31,6.12,4.4,13.14,3.45,20.14,2.89,9.92,4.99,15.5,4.06,25.87-.38.78-.27,1.54,1.31,2.05,1.67,7.96,5.65,18,6,26.53,1.31,9.35,9.26,26.53,10.48,36.74.75,9.18,3.93,21.75,3.18,28.46-5.27,8.22-.1,16.68-.54,24.62.18,7.23,8.41,18.75,9.06,28.61,4.76,8.47,9.17,28.07,9.43,36.48.09,9.32,4.71,21.16,3.83,28.3-4.02,7.29,4.19,15.85,5.88,23.55,2.3,1.77-.82,2.96-1.63,5.13-1.23,7.78,1.43,18.74-.18,20.72-8.38,3.38-13.98-19.06-17.68-29.54-18.98ZM307.43,128.32c3.26,3.22.49,13.57-1.11,17.37-10.08,23.93-31.85,37.6-58.06,40.9l19.44-25.17c7.14-9.25,13.99-15.38,22.11-23.75-8.13,3.38-15.26,7.72-21.77,13.27-2.51,2.14-4.47,4.39-7.46,6.37,2.34-7.16,3.19-13.65,2.54-20.95,9.85-6.95,33.6-13.41,44.31-8.04ZM28.46,201.42c-3.98,1.12-8.21,2.16-11.79-.81-1.31-1.09-1.38-3.82-.22-5.22,3.41-4.11,8.71-5.37,13.69-3.94,9-3.45,17.59-6.54,27.08-3.51-8.95.56-18.46,3-25.35,9.32-1.34,1.23-.65,3.39-3.41,4.17ZM35.94,201.42c-.74-2.03,1.01-4.31,2.5-5.55,3.88-3.23,8.43-3.96,13.38-4.1,1.81-.05,5.32-.62,6.03,1.93-2.72,7.75-19.61,14-21.9,7.72ZM20.32,143.88c-1.56-4.54-2.67-9.38-1.45-14.03,1.07-4.07,11.84-3.52,15.26-3.19,10.68,1.02,20.66,4.41,29.67,10.18-.53,7.13-.12,13.5,2,20.21-2.8-2.1-4.97-4.29-7.47-6.62-6-5.09-12.57-9.05-20.22-12.12l12.21,12.84c5.06,5.35,9.13,10.77,13.53,16.37l14.84,18.9c-25.36-2.91-49.7-17.4-58.36-42.55ZM260.6,203.97c-2.17,4.46-14.78,4.72-18.02-1.59-.74-1.43-.04-3.39-.96-4.87-4.68-2.31-9.37-4.03-14.53-5.58,3.44,3.07,6.25,6.29,7.07,10.81.58,3.2-.86,6-3.87,7.46-5.61,2.71-12.73,2.32-17.93-1.15-3.2-2.14-4.02-5.89-2.65-9.22,1.1-2.68,2.85-4.46,4.81-7.16l-12.78,3.72c1.41,3.74.03,7.09-3.38,8.71-4.12,1.96-8.55,2.43-12.72.4-2.86-1.4-3.62-4.68-2.42-7.39,1.73-3.89,5.29-4.74,8.73-6.14,4.14-1.68,7.37-5.11,12.15-5.99,3.06-10.75,7.37-20.68,12.1-30.84.11-.54-.29-.63-.73-.29-9.51,7.36-15.37,18.46-21.13,29.09-7.58,2.59-16.55,7.49-19.16,15.58l-24.26-.05c-2.68-8.24-11.08-13.6-18.91-16.07l-5.24-9.42c-4.17-7.49-9.67-14.19-16.3-19.78l6.51,15.59c2.2,5.26,4.25,10.19,5.03,15.89,5.27.79,8.85,4.12,13.3,6.12,3.32,1.49,6.66,2.77,7.69,7.03.37,1.54.57,3.29-.44,4.92-.83,1.34-2.49,1.9-4.29,2.53-3.17,1.11-6.05.86-9.17-.16-4.1-1.34-6.1-4.82-5.01-9.3-3.88-1.89-7.68-2.94-11.43-3.72,1.61,2.3,2.74,4.2,3.68,6.44,1.56,3.72.3,7.4-3.13,9.87-4.56,3.28-11.08,3.23-16.37,1.11-3.9-1.56-5.55-5.7-4.18-9.49,1.28-3.54,3.37-5.84,6.4-8.76-3.36-.18-10.64,3.84-13.94,5.45-.92,1.81-.84,3.96-2.04,5.53-3.54,4.64-13.74,5.3-16.82,1.38-1.45-1.85-1.24-4.58-.23-6.52,2.66-5.09,7.7-5.82,12.56-6.55,5.66-.85,10.81-3.39,16.93-2.85-3.99-1.03-9.61-8.34-11.88-11.94-7.77-12.3-13.81-30.04-10.38-44.81,7.1,3.67,14.39,5.43,22.16,4.95-15.96-5.72-28.41-14.56-36.45-30.17-7-15.7-4.71-33.49,8.5-45.22-5.81-6.67-8.69-15.01-8.11-24.18.92-14.7,12.22-27.06,26.84-28.94,18.61-2.39,34.01,8.73,38.41,27.05,15.86-5.87,30.83-6.72,47.63-5.9,10.39.71,20.32,2.32,30.04,5.94,1.36-3.74,2.19-6.91,3.87-10.08,10.1-18.99,35.33-22.73,50.21-10.24,14.41,12.09,15.76,32.71,3.52,46.58,19,17.88,13.89,45.17-4.29,61.7-6.87,6.24-14.96,10.35-23.6,13.48,7.7.33,15.09-1.06,22.06-4.71,3.25,19.35-4.88,41.52-19.21,55.58-.91.89-2.26-.15-3.31.73,3.16.37,6.32.51,9.69,1.3,1.9.44,4.02,2.55,5.98,2.29,3.77-.5,6.66.07,9.91,2.36,2.9,2.05,5.33,5.76,3.51,9.48ZM290.28,201.74c-1.48,2.57-5.59,2.65-8.14,2.06-7.82-1.81-18.51-10.49-11.87-11.9,10.11-2.15,23.07,4.52,20.01,9.84ZM305.08,202.48c-3.51.59-6.49-.91-9.64-2.58,1.49-7.12-22.05-12.69-26.25-11.65-4.04-1.08,9.48-1.48,8.83-1.61-.09,0-.17-.02-.26-.02.14,0,.22.01.26.02,6.95.31,13.15,2.54,19.67,4.79,5.04-1.67,12.04.35,13.19,6.04.56,2.75-3.58,4.63-5.81,5Z"/>
    <g>
      <path class="cls-10" d="M194.87,183.94c5.77-10.63,11.62-21.73,21.13-29.09.44-.34.85-.25.73.29-4.73,10.16-9.04,20.08-12.1,30.84-4.78.88-8.01,4.3-12.15,5.99-3.44,1.4-7.01,2.25-8.73,6.14-1.2,2.71-.45,5.99,2.42,7.39,4.17,2.04,8.6,1.56,12.72-.4,3.4-1.62,4.79-4.97,3.38-8.71l12.78-3.72c-1.96,2.7-3.71,4.48-4.81,7.16-1.37,3.33-.55,7.09,2.65,9.22,5.2,3.48,12.33,3.86,17.93,1.15,3.02-1.46,4.45-4.27,3.87-7.46-.82-4.52-3.63-7.74-7.07-10.81,5.16,1.54,9.85,3.27,14.53,5.58.92,1.48.23,3.43.96,4.87,3.24,6.31,15.85,6.05,18.02,1.59,1.82-3.73-.61-7.44-3.51-9.48-3.25-2.29-6.14-2.86-9.91-2.36-1.96.26-4.08-1.85-5.98-2.29-3.37-.78-6.54-.92-9.69-1.3,1.05-.88,2.41.17,3.31-.73,14.33-14.07,22.46-36.24,19.21-55.58-6.97,3.65-14.36,5.04-22.06,4.71,8.63-3.13,16.73-7.24,23.6-13.48,18.18-16.53,23.28-43.82,4.29-61.7,12.24-13.87,10.89-34.49-3.52-46.58-14.89-12.49-40.11-8.75-50.21,10.24-1.68,3.16-2.51,6.34-3.87,10.08-9.72-3.62-19.64-5.23-30.04-5.94-16.8-.81-31.78.04-47.63,5.9-4.4-18.32-19.79-29.43-38.41-27.05-14.62,1.87-25.91,14.24-26.84,28.94-.58,9.16,2.3,17.5,8.11,24.18-13.21,11.73-15.5,29.53-8.5,45.22,8.03,15.61,20.49,24.45,36.45,30.17-7.76.48-15.06-1.28-22.16-4.95-3.43,14.77,2.6,32.5,10.38,44.81,2.27,3.59,7.89,10.9,11.88,11.94-6.12-.55-11.27,2-16.93,2.85-4.85.73-9.89,1.46-12.56,6.55-1.01,1.94-1.22,4.67.23,6.52,3.08,3.93,13.28,3.27,16.82-1.38,1.2-1.57,1.12-3.72,2.04-5.53,3.3-1.6,10.58-5.63,13.94-5.45-3.03,2.91-5.12,5.22-6.4,8.76-1.37,3.8.28,7.93,4.18,9.49,5.29,2.12,11.81,2.17,16.37-1.11,3.44-2.47,4.69-6.15,3.13-9.87-.94-2.24-2.07-4.15-3.68-6.44,3.75.78,7.56,1.83,11.43,3.72-1.09,4.47.92,7.95,5.01,9.3,3.12,1.02,6,1.27,9.17.16,1.8-.63,3.46-1.19,4.29-2.53,1.01-1.63.81-3.38.44-4.92-1.02-4.26-4.37-5.53-7.69-7.03-4.46-2-8.04-5.33-13.3-6.12-.78-5.7-2.84-10.63-5.03-15.89l-6.51-15.59c6.63,5.59,12.13,12.29,16.3,19.78l5.24,9.42c7.83,2.47,16.23,7.82,18.91,16.07l24.26.05c2.61-8.09,11.58-13,19.16-15.58Z"/>
      <g class="cls-11">
        <path class="cls-4" d="M78.68,89.32s1.98,23.9,24.69,39.39c16.45,9.88,20.65,9.81,20.65,9.81,0,0-4.39,5.94-5.68,10.84s-1.94,7.29-2.13,11.42,12.84,23.68,12.84,23.68l7.74,4.26,9.73,11.23,4.85,2.62h25.29l4.3-10.87,20.86-8.78,8.99-23.33s-.28-8.15-7.12-18.93c-1.13-1.78-1.81-2.65-1.81-2.65,0,0,23.1-8.26,32.19-19.74s12.58-19.87,13.68-27.48-4.45-3.61-4.45-3.61l-25.48,9.94s-39.1-2.06-48.26-4.39-30.71,2.19-38.58,3.74-17.55,1.03-26.19-1.16-19.74-12.65-23.1-10.71-3.02,4.74-3.02,4.74Z"/>
        <path class="cls-5" d="M80.13,134.71s-1.52,13.09,4.15,27.03,12.65,24.12,13.68,24.96-4.66.96-4.66.96l-12.11-7.86-13.91-37.16,4.39-14.71,7.02,5.42,1.44,1.36Z"/>
        <path class="cls-5" d="M245.83,134.38s1.55,9.55-1.55,19.87c-7.35,23.74-17.16,33.16-17.16,33.16l8.57,1.55,9.62-10.46,17.72-32.15-6.11-15.59-3.1-2.84-8,6.45Z"/>
      </g>
    </g>
    <path class="cls-12" d="M28.4,201.48c2.78-.78,2.08-2.96,3.43-4.2,6.95-6.37,16.53-8.83,25.55-9.39-9.56-3.05-18.22.06-27.29,3.54-5.02-1.44-10.36-.16-13.8,3.98-1.17,1.41-1.1,4.17.22,5.26,3.61,3,7.87,1.95,11.89.82Z"/>
    <path class="cls-12" d="M295.44,199.91c3.15,1.66,6.13,3.16,9.64,2.58,2.23-.37,6.37-2.25,5.81-5-1.15-5.69-8.15-7.71-13.19-6.04-6.61-2.28-12.88-4.55-19.94-4.81,2.59.1-12.85.48-8.57,1.63,4.19-1.04,27.74,4.53,26.25,11.65Z"/>
    <path class="cls-12" d="M57.84,193.74c-.71-2.55-4.21-1.98-6.01-1.93-4.94.14-9.47.86-13.34,4.08-1.48,1.24-3.23,3.5-2.49,5.53,2.28,6.26,19.12.04,21.83-7.69Z"/>
    <path class="cls-12" d="M290.28,201.74c3.06-5.32-9.9-11.99-20.01-9.84-6.63,1.41,4.05,10.09,11.87,11.9,2.55.59,6.66.51,8.14-2.06Z"/>
    <ellipse class="cls-7" cx="235.69" cy="39.61" rx="25.21" ry="25.23"/>
    <ellipse class="cls-7" cx="91.6" cy="39.59" rx="25.21" ry="25.23"/>
    <path d="M255.68,39.61c0,11.05-8.95,20-19.99,20s-19.99-8.96-19.99-20,8.95-20,19.99-20,19.99,8.96,19.99,20ZM249.73,33.07c0-3.33-2.69-6.02-6.02-6.02s-6.02,2.7-6.02,6.02,2.69,6.02,6.02,6.02,6.02-2.7,6.02-6.02Z"/>
    <path d="M111.54,39.59c0,11.02-8.93,19.95-19.94,19.95s-19.94-8.93-19.94-19.95,8.93-19.95,19.94-19.95,19.94,8.93,19.94,19.95ZM105.35,33.09c0-3.33-2.7-6.03-6.03-6.03s-6.03,2.7-6.03,6.03,2.7,6.03,6.03,6.03,6.03-2.7,6.03-6.03Z"/>
    <path d="M246.98,78.98c2.54,3.18,4.74,8.82,2.83,10.78-.41.43-1.67,1.07-2.04.59-.7-.9-1.05-1.57-1.87-1.99s-1.76-.01-2.65.68c-5.11,4-10.79,6.99-17.09,8.68-4.07,1.09-7.95,2.13-12.22,2.45-24.94,1.84-40.33-5.79-55.63-3.6l-22.07,3.15c-5.7.81-16.82.99-22.3.48-9.28-.87-18.1-3.14-25.96-7.98-2.29-1.41-3.89-3.28-6.65-4.17-.31,1.49-3.42,3.29-4.27,1.65-1.93-3.71,1.26-12.51,7.01-12.42,6.21,13.83,21.55,17.76,35.49,17.89,2.51.02,9.64.07,10.86-.1,7.86-1.09,15.35-2.69,23.06-4.36,20.24-4.39,31.81,6.6,61.19,4.07,9.1-.78,17.29-4.37,23.69-10.61,1.96-1.91,2.68-4.41,4.48-6.4.96-1.06,3.4.27,4.14,1.21Z"/>
    <path d="M145.89,66.85c2.84-.28,5.19,2.18,5.45,4.34.37,3.06-2.01,5.4-4.55,5.68-2.74.3-5.09-1.45-5.52-4.23-.4-2.59,1.52-5.49,4.62-5.79Z"/>
    <path d="M185.36,73.89c-1.35,2.72-4.11,3.55-6.68,2.65-2.23-.78-3.86-3.95-2.79-6.41,1.22-2.78,4.09-3.83,6.68-2.81,2.42.96,4.17,3.78,2.79,6.57Z"/>
    <g>
      <path class="cls-1" d="M50.32,151.15l-12.21-12.84c7.65,3.07,14.22,7.03,20.22,12.12,2.5,2.33,4.67,4.52,7.47,6.62-2.12-6.71-2.54-13.08-2-20.21-9-5.77-18.99-9.16-29.67-10.18-3.42-.33-14.19-.88-15.26,3.19-1.22,4.64-.11,9.49,1.45,14.03,8.66,25.15,33,39.64,58.36,42.55l-14.84-18.9c-4.4-5.6-8.47-11.02-13.53-16.37Z"/>
      <g class="cls-18">
        <path class="cls-21" d="M56.38,131.8l-.76,9.19s-12.98-9.1-29.63-9c19.26,4.45,28.84,10.35,29.08,11.03s0,6.58,0,6.58l12.05,9.58-1.16-25.35-9.58-2.03Z"/>
        <path class="cls-21" d="M53.96,153.96s.1,4.84-11.71,8.71-17.52.58-17.52.58l37.84,21.87,16.11,1.3-5.27-14.95-19.45-17.52Z"/>
      </g>
    </g>
  </g>
  <text class="cls-2" transform="translate(37.24 295.16)"><tspan x="0" y="0">F</tspan><tspan class="cls-6" x="55.67" y="0">R</tspan><tspan x="116.45" y="0">OG</tspan></text>
</svg>